<?xml version="1.0" encoding="UTF-8" standalone="no"?>
<!-- Created with Inkscape (http://www.inkscape.org/) -->

<svg
   width="50.00005mm"
   height="50.00005mm"
   viewBox="0 0 50.00005 50.00005"
   version="1.1"
   id="svg1"
   xmlns="http://www.w3.org/2000/svg">
  <g
     id="layer1">
    <path
       id="path1"
       d="M 25.000024,0 A 25,25 0 0 0 0,25.000024 25,25 0 0 0 25.000024,50.000049 25,25 0 0 0 50.000049,25.000024 25,25 0 0 0 25.000024,0 Z m 0,0.99993896 A 24,24 0 0 1 49.00011,25.000024 24,24 0 0 1 25.000024,49.00011 24,24 0 0 1 0.99993896,25.000024 24,24 0 0 1 25.000024,0.99993896 Z" />
    <rect
       id="rect2"
       width="0.2"
       height="48.9566"
       x="24.9"
       y="0.43000001" />
    <rect
       id="rect2-2"
       width="0.2"
       height="48.9566"
       x="24.9"
       y="-49.4496"
       transform="rotate(90)" />
    <rect
       id="rect2-2-7"
       width="0.2"
       height="5.1088142"
       x="29.057631"
       y="-9.6341915"
       transform="rotate(90)" />
    <rect
       id="rect2-2-7-6"
       width="0.2"
       height="3.2274272"
       x="28.000933"
       y="-7.7528043"
       transform="rotate(90)" />
    <rect
       id="rect2-2-7-61"
       width="0.2"
       height="3.2274272"
       x="26.944235"
       y="-7.7528043"
       transform="rotate(90)" />
    <rect
       id="rect2-2-7-2"
       width="0.2"
       height="3.2274272"
       x="25.887539"
       y="-7.7528043"
       transform="rotate(90)" />
    <rect
       id="rect2-2-7-6-5"
       width="0.2"
       height="3.2274272"
       x="23.774143"
       y="-7.7528043"
       transform="rotate(90)" />
    <rect
       id="rect2-2-7-61-9"
       width="0.2"
       height="3.2274272"
       x="22.717445"
       y="-7.7528043"
       transform="rotate(90)" />
    <rect
       id="rect2-2-7-2-2"
       width="0.2"
       height="3.2274272"
       x="21.660748"
       y="-7.7528043"
       transform="rotate(90)" />
    <rect
       id="rect2-2-7-73"
       width="0.2"
       height="5.1088142"
       x="20.604048"
       y="-9.6341915"
       transform="rotate(90)" />
    <rect
       id="rect2-2-7-6-6"
       width="0.2"
       height="3.2274272"
       x="19.54735"
       y="-7.7528043"
       transform="rotate(90)" />
    <rect
       id="rect2-2-7-61-1"
       width="0.2"
       height="3.2274272"
       x="18.490652"
       y="-7.7528043"
       transform="rotate(90)" />
    <rect
       id="rect2-2-7-2-29"
       width="0.2"
       height="3.2274272"
       x="17.433954"
       y="-7.7528043"
       transform="rotate(90)" />
    <rect
       id="rect2-2-7-4"
       width="0.2"
       height="5.1088142"
       x="16.377256"
       y="-9.6341915"
       transform="rotate(90)" />
    <rect
       id="rect2-2-7-6-7"
       width="0.2"
       height="3.2274272"
       x="15.320557"
       y="-7.7528043"
       transform="rotate(90)" />
    <rect
       id="rect2-2-7-61-8"
       width="0.2"
       height="3.2274272"
       x="14.263859"
       y="-7.7528043"
       transform="rotate(90)" />
    <rect
       id="rect2-2-7-2-4"
       width="0.2"
       height="3.2274272"
       x="13.207161"
       y="-7.7528043"
       transform="rotate(90)" />
    <rect
       id="rect2-2-7-6-5-1"
       width="0.2"
       height="1.1088184"
       x="40.681301"
       y="-7.7528043"
       transform="rotate(90)" />
    <rect
       id="rect2-2-7-61-9-5"
       width="0.2"
       height="1.8773868"
       x="39.624603"
       y="-7.7528043"
       transform="rotate(90)" />
    <rect
       id="rect2-2-7-2-2-5"
       width="0.2"
       height="3.2274272"
       x="38.567905"
       y="-7.7528043"
       transform="rotate(90)" />
    <rect
       id="rect2-2-7-73-4"
       width="0.2"
       height="5.1088142"
       x="37.511208"
       y="-9.6341915"
       transform="rotate(90)" />
    <rect
       id="rect2-2-7-6-6-7"
       width="0.2"
       height="3.2274272"
       x="36.45451"
       y="-7.7528043"
       transform="rotate(90)" />
    <rect
       id="rect2-2-7-61-1-6"
       width="0.2"
       height="3.2274272"
       x="35.397812"
       y="-7.7528043"
       transform="rotate(90)" />
    <rect
       id="rect2-2-7-2-29-5"
       width="0.2"
       height="3.2274272"
       x="34.341114"
       y="-7.7528043"
       transform="rotate(90)" />
    <rect
       id="rect2-2-7-4-6"
       width="0.2"
       height="5.1088142"
       x="33.284416"
       y="-9.6341915"
       transform="rotate(90)" />
    <rect
       id="rect2-2-7-6-7-9"
       width="0.2"
       height="3.2274272"
       x="32.227718"
       y="-7.7528043"
       transform="rotate(90)" />
    <rect
       id="rect2-2-7-61-8-3"
       width="0.2"
       height="3.2274272"
       x="31.171026"
       y="-7.7528043"
       transform="rotate(90)" />
    <rect
       id="rect2-2-7-2-4-7"
       width="0.2"
       height="3.2274272"
       x="30.114328"
       y="-7.7528043"
       transform="rotate(90)" />
    <rect
       id="rect2-2-7-5"
       width="0.2"
       height="5.1088142"
       x="12.150464"
       y="-9.6341915"
       transform="rotate(90)" />
    <rect
       id="rect2-2-7-6-4"
       width="0.2"
       height="3.2274272"
       x="11.093767"
       y="-7.7528043"
       transform="rotate(90)" />
    <rect
       id="rect2-2-7-61-7"
       width="0.2"
       height="2.3177578"
       x="10.037069"
       y="-7.7528043"
       transform="rotate(90)" />
    <rect
       id="rect2-2-7-2-44"
       width="0.2"
       height="1.3424321"
       x="8.9803705"
       y="-7.7528043"
       transform="rotate(90)" />
  </g>
</svg>
